<svg width="369" height="123" viewBox="0 0 369 123" fill="none" xmlns="http://www.w3.org/2000/svg">
<path d="M109.059 69.3368C109.972 67.6812 111.055 66.034 111.13 64.1039C110.729 64.5843 110.29 65.1107 109.81 65.6888C104.506 71.992 98.9711 77.6797 97.0494 78.7557L95.6657 79.5251L95.8963 77.9111C96.4344 73.6823 99.8167 66.5333 103.43 61.8453C110.117 53.3889 123.108 33.9413 123.108 32.4812C123.108 32.2498 122.878 31.942 122.647 31.7118C122.263 31.404 122.032 31.404 121.417 31.7894C119.572 32.7115 106.658 51.0831 100.509 61.46C98.2793 65.2271 97.5106 66.2268 95.0508 68.5326C93.4365 69.9927 91.7454 71.5303 91.2073 71.7605L90.2848 72.3761L90.4385 71.1462C90.5154 70.5307 91.0536 68.6865 91.6685 66.995C92.2834 65.381 92.6678 63.7671 92.591 63.5356C92.0528 62.3057 91.361 62.7674 86.3645 67.917C83.5972 70.7621 81.2911 72.914 81.2911 72.7602C81.2911 72.6063 82.1366 71.1462 83.2128 69.5323C84.9808 66.8411 90.0542 61.2298 90.8229 61.2298C90.9767 61.2298 91.1304 61.5376 91.1304 61.8453C91.1304 62.9976 92.6678 62.3833 93.4364 60.922C94.3589 59.2317 93.7439 57.848 92.1297 57.848C89.6698 57.9243 85.9033 60.8457 81.8292 65.9953C76.9095 72.2985 68.2233 80.7549 60.152 87.2121C54.848 91.4396 45.0855 96.9747 39.1665 99.2029C34.8618 100.741 31.7102 101.356 27.9436 101.202C22.9471 100.972 20.1029 99.2805 18.1812 95.437C13.8765 86.8279 18.258 70.9161 29.4041 54.3886C44.7012 31.7894 71.3749 11.7263 86.2107 11.7263C92.8984 11.6487 94.8202 15.8763 91.7454 23.5632C89.9773 28.0986 88.8243 30.0979 80.753 43.3199C76.3714 50.3913 75.1415 53.389 76.2946 53.7731C76.7558 53.927 82.2904 45.6257 86.5951 38.5531C92.3603 28.868 94.897 22.795 94.9739 18.3373C94.9739 15.3383 94.5127 14.0321 92.9753 12.4182C91.2073 10.6503 89.2855 10.1111 85.4421 10.1111C70.2988 10.3426 43.7019 28.2525 28.5586 48.4696C14.5684 67.0727 9.26435 84.9826 14.4146 95.8988C18.8731 105.43 30.711 106.66 45.0087 99.0504C53.8487 94.2835 64.6104 86.2125 73.9885 77.2956C75.9103 75.3739 77.5245 74.144 77.4477 74.3742C77.1402 75.2976 77.832 76.6037 78.6776 76.834C79.8306 77.1417 81.2143 76.0657 85.1346 71.9145L88.6706 68.2249L88.2094 69.9927C87.5175 72.6839 87.9788 74.2979 89.593 74.8359C90.3617 75.1437 92.4372 74.0677 93.8978 72.7602C94.8202 71.9145 95.2045 71.7606 95.0508 72.1459C92.8984 77.8336 92.8216 80.5247 94.897 81.5232C95.6657 81.8309 95.9732 81.8309 97.2031 81.2929C99.2017 80.3709 103.968 75.604 108.657 69.8388L109.059 69.3368Z" fill="#D79A29"/>
<path d="M92.7959 60.2695C92.554 62.1497 90.9418 63.7247 91.0183 65.6188L92.7959 60.2695Z" fill="#D79A29"/>
<path d="M238.461 92.8604H237.207L235.702 90.34C235.564 90.1059 235.431 89.9064 235.301 89.7412C235.171 89.5761 235.039 89.4413 234.903 89.3367C234.767 89.2323 234.621 89.156 234.464 89.1079C234.307 89.0599 234.131 89.0358 233.934 89.0358H233.069V92.8604H232.016V83.8694H234.699C235.092 83.8694 235.455 83.9186 235.787 84.0167C236.119 84.115 236.408 84.2644 236.652 84.465C236.897 84.6656 237.088 84.9155 237.226 85.2143C237.364 85.5132 237.433 85.8632 237.433 86.2645C237.433 86.5779 237.386 86.8654 237.292 87.1266C237.198 87.3879 237.064 87.6209 236.89 87.8257C236.717 88.0305 236.508 88.205 236.264 88.3492C236.019 88.4934 235.744 88.6053 235.439 88.6846V88.7097C235.59 88.7766 235.72 88.853 235.831 88.9386C235.942 89.0243 236.047 89.1257 236.148 89.2427C236.248 89.3598 236.347 89.4925 236.445 89.6408C236.544 89.7893 236.653 89.9617 236.774 90.1581L238.461 92.8604ZM233.069 84.8224V88.0828H234.499C234.762 88.0828 235.005 88.0431 235.229 87.9637C235.453 87.8843 235.646 87.7704 235.809 87.622C235.972 87.4736 236.099 87.2918 236.191 87.0765C236.283 86.8612 236.329 86.6199 236.329 86.3523C236.329 85.8716 236.174 85.4964 235.862 85.2269C235.551 84.9572 235.1 84.8224 234.511 84.8224H233.069Z" fill="#D79A29"/>
<path d="M246.39 92.8604H241.625V83.8694H246.189V84.8224H242.678V87.8132H245.926V88.7599H242.678V91.9074H246.39L246.39 92.8604Z" fill="#D79A29"/>
<path d="M249.625 92.4966V91.2552C249.767 91.3806 249.937 91.4935 250.136 91.5938C250.334 91.6941 250.544 91.7788 250.763 91.8477C250.982 91.9166 251.203 91.97 251.424 92.0076C251.646 92.0453 251.851 92.064 252.039 92.064C252.687 92.064 253.171 91.9439 253.49 91.7035C253.81 91.4632 253.97 91.1172 253.97 90.6658C253.97 90.4234 253.917 90.2123 253.81 90.0326C253.704 89.8529 253.556 89.6888 253.368 89.5404C253.18 89.392 252.957 89.2499 252.7 89.114C252.443 88.9782 252.166 88.835 251.87 88.6846C251.556 88.5257 251.264 88.3648 250.992 88.2018C250.72 88.0388 250.484 87.8591 250.283 87.6626C250.083 87.4662 249.925 87.2435 249.81 86.9948C249.695 86.7462 249.638 86.4547 249.638 86.1202C249.638 85.7106 249.727 85.3543 249.907 85.0512C250.087 84.7482 250.323 84.4985 250.616 84.3019C250.908 84.1055 251.242 83.9592 251.616 83.863C251.99 83.7669 252.371 83.7188 252.76 83.7188C253.646 83.7188 254.292 83.8254 254.697 84.0386V85.2235C254.166 84.8558 253.485 84.6718 252.653 84.6718C252.423 84.6718 252.193 84.6959 251.964 84.7439C251.734 84.792 251.529 84.8704 251.349 84.979C251.169 85.0877 251.023 85.2278 250.91 85.3991C250.797 85.5705 250.741 85.7795 250.741 86.0261C250.741 86.256 250.784 86.4546 250.87 86.6217C250.955 86.7889 251.082 86.9414 251.249 87.0794C251.416 87.2174 251.62 87.3511 251.86 87.4807C252.101 87.6103 252.377 87.7524 252.691 87.907C253.013 88.0659 253.318 88.233 253.606 88.4086C253.895 88.5841 254.148 88.7785 254.365 88.9917C254.582 89.2049 254.755 89.4411 254.882 89.7002C255.01 89.9594 255.074 90.2562 255.074 90.5906C255.074 91.0337 254.987 91.4088 254.813 91.716C254.64 92.0232 254.406 92.273 254.111 92.4653C253.816 92.6575 253.477 92.7966 253.092 92.8823C252.708 92.9679 252.302 93.0108 251.876 93.0108C251.734 93.0108 251.558 92.9992 251.349 92.9763C251.14 92.9532 250.927 92.9199 250.71 92.8759C250.492 92.8321 250.286 92.7778 250.092 92.713C249.898 92.6482 249.742 92.5761 249.625 92.4966Z" fill="#D79A29"/>
<path d="M262.417 93.0108C261.142 93.0108 260.121 92.5907 259.354 91.7505C258.587 90.9104 258.203 89.8173 258.203 88.4714C258.203 87.0251 258.594 85.8715 259.376 85.0104C260.157 84.1493 261.221 83.7188 262.567 83.7188C263.808 83.7188 264.808 84.1368 265.567 84.9728C266.326 85.8088 266.705 86.9018 266.705 88.2519C266.705 89.719 266.316 90.879 265.539 91.7317C264.761 92.5844 263.721 93.0108 262.417 93.0108ZM262.492 84.6718C261.547 84.6718 260.78 85.0125 260.191 85.6938C259.601 86.3752 259.307 87.2697 259.307 88.3773C259.307 89.485 259.594 90.3764 260.169 91.0514C260.743 91.7265 261.493 92.064 262.417 92.064C263.403 92.064 264.18 91.7422 264.749 91.0985C265.317 90.4548 265.602 89.554 265.602 88.3961C265.602 87.209 265.326 86.2916 264.774 85.6436C264.222 84.9958 263.461 84.6718 262.492 84.6718Z" fill="#D79A29"/>
<path d="M276.844 92.8604H275.59L274.085 90.34C273.947 90.1059 273.813 89.9064 273.684 89.7412C273.554 89.5761 273.422 89.4413 273.286 89.3367C273.15 89.2323 273.004 89.156 272.847 89.1079C272.69 89.0599 272.514 89.0358 272.317 89.0358H271.452V92.8604H270.398V83.8694H273.082C273.475 83.8694 273.837 83.9186 274.17 84.0167C274.502 84.115 274.79 84.2644 275.035 84.465C275.28 84.6656 275.471 84.9155 275.609 85.2143C275.747 85.5132 275.816 85.8632 275.816 86.2645C275.816 86.5779 275.769 86.8654 275.675 87.1266C275.581 87.3879 275.447 87.6209 275.273 87.8257C275.1 88.0305 274.891 88.205 274.646 88.3492C274.402 88.4934 274.127 88.6053 273.822 88.6846V88.7097C273.972 88.7766 274.103 88.853 274.214 88.9386C274.324 89.0243 274.43 89.1257 274.53 89.2427C274.631 89.3598 274.73 89.4925 274.828 89.6408C274.926 89.7893 275.036 89.9617 275.157 90.1581L276.844 92.8604ZM271.452 84.8224V88.0828H272.881C273.145 88.0828 273.388 88.0431 273.612 87.9637C273.835 87.8843 274.029 87.7704 274.192 87.622C274.355 87.4736 274.482 87.2918 274.574 87.0765C274.666 86.8612 274.712 86.6199 274.712 86.3523C274.712 85.8716 274.556 85.4964 274.245 85.2269C273.934 84.9572 273.483 84.8224 272.894 84.8224H271.452Z" fill="#D79A29"/>
<path d="M285.325 84.8224H282.729V92.8604H281.675V84.8224H279.086V83.8694H285.325V84.8224Z" fill="#D79A29"/>
<path d="M298.77 92.8604H294.105V83.8694H295.159V91.9074H298.77V92.8604Z" fill="#D79A29"/>
<path d="M304.004 83.8694V84.7723H303.126V91.9576H304.004V92.8605H301.195V91.9576H302.073V84.7723H301.195V83.8694H304.004Z" fill="#D79A29"/>
<path d="M314.101 83.8694L310.772 92.8604H309.612L306.352 83.8694H307.524L310.013 90.9983C310.093 91.2282 310.153 91.4936 310.195 91.7946H310.22C310.254 91.5437 310.322 91.2742 310.427 90.9858L312.966 83.8694H314.101Z" fill="#D79A29"/>
<path d="M319.25 83.8694V84.7723H318.373V91.9576H319.25V92.8605H316.441V91.9576H317.319V84.7723H316.441V83.8694H319.25Z" fill="#D79A29"/>
<path d="M329.912 92.8603H328.62L323.993 85.6938C323.876 85.5141 323.78 85.326 323.705 85.1295H323.667C323.701 85.3218 323.717 85.7335 323.717 86.3647V92.8602H322.664V83.8692H324.031L328.533 90.9228C328.721 91.2154 328.842 91.4161 328.896 91.5247H328.921C328.88 91.2656 328.859 90.8246 328.859 90.2018V83.8691H329.912L329.912 92.8603Z" fill="#D79A29"/>
<path d="M340.916 92.2458C340.013 92.7558 339.01 93.0108 337.907 93.0108C336.623 93.0108 335.586 92.5969 334.794 91.7693C334.001 90.9417 333.605 89.8466 333.605 88.4839C333.605 87.092 334.045 85.9499 334.925 85.0574C335.805 84.165 336.92 83.7188 338.27 83.7188C339.248 83.7188 340.07 83.8777 340.734 84.1953V85.3615C340.007 84.9017 339.146 84.6718 338.151 84.6718C337.144 84.6718 336.318 85.0188 335.674 85.7126C335.031 86.4065 334.709 87.3051 334.709 88.4086C334.709 89.5457 335.008 90.4391 335.606 91.089C336.203 91.739 337.014 92.064 338.038 92.064C338.74 92.064 339.349 91.9239 339.863 91.6439V89.1234H337.894V88.1704H340.916V92.2458Z" fill="#D79A29"/>
<path d="M118.055 54.253C118.67 54.9449 118.747 54.8673 120.284 53.6375C121.053 53.0231 122.283 52.1774 122.974 51.7933C124.051 51.1014 124.281 50.7937 124.281 50.1018C124.281 49.5638 124.127 49.1021 123.82 49.0258C121.591 48.18 116.517 52.7929 118.055 54.253Z" fill="#D79A29"/>
<path d="M270.972 33.3909C271.203 28.3175 269.743 24.5504 265.668 20.4767C261.056 15.7874 254.984 13.0199 245.221 11.2521C241.07 10.4063 226.388 10.4839 220.008 11.2521C200.944 13.6355 183.111 19.3244 169.658 27.4717C160.741 32.8528 155.053 39.0797 155.514 42.9995C155.745 44.845 156.744 45.921 158.205 45.8434C159.435 45.6895 159.896 44.9213 158.743 44.9213C158.282 44.9213 157.82 44.6911 157.59 44.3833C155.053 39.6177 167.967 29.3935 184.802 22.7062C198.254 17.4026 212.475 14.4037 228.233 13.5592C240.301 12.9436 250.064 14.3274 257.059 17.7092C264.131 21.0922 267.898 25.8578 268.205 31.6993C268.436 36.0045 267.359 39.31 264.054 44.307C261.902 47.6112 253.6 55.9901 248.911 59.6033C240.378 66.2143 228.848 73.0555 219.854 76.899L218.547 77.5145L219.547 75.285C222.006 69.9802 232.691 47.8427 233.076 47.2271C233.306 46.9193 234.69 43.9216 236.304 40.6937C238.687 35.5428 239.072 34.5444 238.764 34.0064C238.38 33.1606 237.534 33.083 236.842 33.7749C236.458 34.2366 234.075 38.9258 228.54 50.3024C226.772 53.9156 215.549 73.4395 212.936 77.4369C209.938 81.896 209.784 82.8944 212.09 82.8181C212.552 82.8181 212.936 82.9719 212.936 83.1258C212.936 83.2797 210.86 87.5073 208.324 92.4268C204.019 100.96 203.097 103.111 203.558 104.111C203.865 104.957 205.48 104.725 206.171 103.727C206.479 103.265 208.554 98.8838 210.784 93.9644C213.013 89.0449 215.242 84.2781 215.703 83.356L216.549 81.6645L224.389 77.821C239.687 70.2116 249.372 63.5243 258.596 54.2997C267.283 45.7671 270.665 40.0018 270.972 33.3909ZM215.703 77.8211C215.165 78.8983 214.473 79.7429 214.473 79.2824C214.473 78.9747 218.24 71.9796 218.317 71.9796C218.47 71.9795 216.703 75.823 215.703 77.8211Z" fill="#D79A29"/>
<path d="M157.944 53.4509C158.866 52.6827 159.943 51.9145 160.404 51.7607C161.249 51.4529 161.326 50.5308 160.634 49.8389C160.019 49.1471 159.635 49.2234 158.328 49.9928C156.099 51.299 154.485 53.3746 154.869 54.3743C155.177 55.22 156.099 54.9122 157.944 53.4509Z" fill="#D79A29"/>
<path d="M197.793 60.4491C197.485 60.5254 196.947 60.2952 196.486 59.8336C196.025 59.3732 195.564 59.1417 195.179 59.2956C194.488 59.6034 191.643 61.679 187.877 64.9069C186.186 66.2907 184.418 67.752 183.88 68.1361L182.957 68.7504L183.649 67.6744C183.956 67.1364 185.033 65.3686 186.032 63.831C187.8 60.8333 188.184 59.3732 187.185 59.3732C186.878 59.3732 186.493 59.6034 186.263 59.7573C185.955 60.0651 185.801 59.9875 185.494 59.6034C184.956 58.8352 183.495 58.8352 181.804 59.681C181.251 59.9883 179.811 61.0342 178.352 62.227C177.732 62.9638 177.198 63.7694 176.778 64.6377C176.555 65.1001 176.368 65.5777 176.209 66.0659C176.152 66.2434 176.09 66.4198 176.029 66.5962C176.024 66.6501 175.999 66.7293 175.962 66.8288C175.655 67.6745 176.269 68.9044 177.115 69.1359C178.268 69.3661 178.96 69.0583 181.035 67.1366L182.88 65.4463L181.266 68.1363C180.344 69.5963 179.191 71.134 178.652 71.5181C177.499 72.4414 173.272 74.7473 164.662 79.2051C156.207 83.5865 153.209 85.5858 150.211 88.6599C148.443 90.3514 147.52 91.5813 146.675 93.4267L145.445 95.8088L144.852 100.469C144.852 104.081 145.599 105.879 145.983 107.339C146.675 109.877 147.982 112.49 148.981 113.258H148.904C150.364 114.334 151.671 113.874 154.054 111.337C157.206 108.031 163.432 99.0379 171.657 86.1238C181.112 71.2115 180.805 71.6719 184.187 69.2122C185.878 67.9823 187.954 66.4447 188.799 65.7528C190.183 64.6005 190.26 64.523 190.106 65.2148C189.568 67.0603 189.491 68.5203 189.952 69.4424C190.49 70.5197 192.105 71.3642 193.411 71.3642C196.486 71.3642 200.945 66.9064 201.021 63.7548C201.098 61.7553 199.407 59.9874 197.793 60.4491ZM177.346 73.9776C177.269 74.1315 173.118 80.4347 168.198 87.8151C158.436 102.497 155.438 106.801 152.594 109.722C151.594 110.798 150.595 111.644 150.441 111.644C149.365 111.644 148.135 108.415 147.29 103.496C146.213 97.3462 147.828 92.657 152.67 88.1992C155.053 85.9697 157.821 84.2019 163.202 81.358C165.585 80.0506 169.812 77.8211 172.58 76.2846C175.347 74.8234 177.499 73.7474 177.346 73.9776ZM182.035 64.2926C180.882 65.3685 179.498 66.4445 179.037 66.676L178.191 67.1364L178.652 66.1367C179.344 64.9069 181.574 62.4472 182.727 61.7553C183.649 61.2949 183.649 61.2949 183.88 61.7553C184.033 62.217 183.572 62.8325 182.035 64.2926ZM196.102 68.0585C194.795 68.9042 193.642 69.1357 192.72 68.7504C191.49 68.2124 193.565 63.3705 195.487 62.3709C196.947 61.6027 198.715 61.9092 199.1 62.9089C199.638 64.3689 198.254 66.676 196.102 68.0585Z" fill="#D79A29"/>
<path d="M355.606 65.6764C354.53 65.1384 353.761 65.2923 352.993 66.1368C352.378 66.9062 352.608 68.2124 353.377 68.3663C353.684 68.4439 353.992 68.5202 354.069 68.4439C356.682 67.4442 357.22 66.5222 355.606 65.6764Z" fill="#D79A29"/>
<path d="M149.787 65.162C149.695 65.717 149.463 66.1914 149.291 66.6828C149.265 66.7578 149.238 66.8328 149.212 66.9078C149.312 66.7859 149.412 66.6634 149.51 66.5399C149.548 66.4923 149.586 66.4445 149.623 66.3966C149.628 66.3903 149.661 66.3481 149.679 66.3251C149.699 66.2988 149.755 66.2258 149.754 66.2278C149.782 66.1901 149.811 66.1524 149.839 66.1145C150.713 64.9545 151.474 63.717 152.109 62.411C152.268 62.0847 152.419 61.7549 152.565 61.4224C152.607 61.3264 152.648 61.2302 152.689 61.1337C152.69 61.1313 152.691 61.1298 152.692 61.1277C152.694 61.1227 152.696 61.1167 152.7 61.1088C152.718 61.065 152.736 61.0211 152.754 60.9772C152.828 60.7984 152.901 60.619 152.972 60.4391C153.142 60.0067 153.306 59.5714 153.464 59.1344C153.264 59.2279 153.078 59.3696 152.905 59.5556C150.977 61.6259 149.114 63.753 147.063 65.7193C145.438 67.2773 143.589 68.6482 141.801 70.0628C141.418 70.3652 140.872 70.498 140.177 70.8094C140.329 70.2019 140.37 69.8198 140.52 69.4762C141.168 67.9907 141.907 66.535 142.499 65.0319C142.934 63.9246 143.263 62.7726 143.504 61.6181C143.661 60.8633 143.413 60.1227 142.606 59.6813C141.84 59.2625 141.112 59.5115 140.463 59.9144C139.407 60.571 138.333 61.2197 137.367 61.9767C135.201 63.6747 133.097 65.4373 130.848 67.2713C131.197 66.5807 131.533 66.0044 131.784 65.3998C132.266 64.2431 132.774 63.0884 133.128 61.8985C133.4 60.9834 132.975 60.1393 132.264 59.8031C131.391 59.3895 130.658 59.7268 130.026 60.2641C129.002 61.1333 127.964 61.9949 127.019 62.9315C125.86 64.0812 124.79 65.3047 123.682 66.4963C123.72 66.2092 123.851 65.9749 123.991 65.7447C124.873 64.2948 125.787 62.8594 126.625 61.3894C126.941 60.8355 127.149 60.2139 127.29 59.6018C127.455 58.8883 127.21 58.2558 126.373 58.0095C125.555 57.7692 125.082 58.2352 124.653 58.7975C123.2 60.7049 117.934 71.3589 117.591 72.5245C117.437 73.0463 117.62 73.6256 118.24 73.7116C118.538 73.753 118.883 73.5774 119.214 73.4018C119.328 73.341 119.757 72.9614 119.873 72.8331C122.43 69.983 124.967 67.1181 127.563 64.2977C128.184 63.6231 129.005 63.0977 129.733 62.5036C129.747 62.9492 129.588 63.2678 129.43 63.5872C128.487 65.4998 127.494 67.3944 126.623 69.3334C126.239 70.1888 125.989 71.1257 125.901 72.0421C125.858 72.5011 126.151 73.0278 126.556 73.2461C127.147 73.5646 127.522 73.0801 128.02 72.8268C128.121 72.7756 128.18 72.6618 128.267 72.5838C131.461 69.6924 134.637 66.784 137.865 63.9238C138.67 63.2105 139.645 62.6532 140.542 62.0242C140.09 63.5559 139.388 64.9335 138.903 66.3702C138.455 67.699 138.067 69.0817 137.969 70.4579C137.857 72.0263 139.315 72.8677 140.952 72.2784C141.815 71.9674 142.685 71.5332 143.366 70.9706C145.144 69.5007 146.825 67.9335 148.534 66.3957C148.971 66.0024 149.37 65.5742 149.787 65.162Z" fill="#D79A29"/>
<path d="M181.453 60.19C180.946 60.285 180.451 60.5844 180.031 60.887C175.61 64.0719 171.206 67.2755 166.795 70.471C166.533 70.6605 166.25 70.8252 165.977 71.0014C166.021 70.5567 166.157 70.2233 166.321 69.9016C167.316 67.9501 168.368 66.0207 169.294 64.0434C169.752 63.0652 170.037 62.0115 170.296 60.9711C170.474 60.2533 170.207 59.5882 169.46 59.1928C168.699 58.7896 167.985 59.0186 167.329 59.4462C166.982 59.6719 166.634 59.9053 166.334 60.1774C165.061 61.3302 163.78 62.4771 162.553 63.669C161.671 64.5256 160.869 65.45 160.032 66.3442C160.065 66.0254 160.194 65.7578 160.334 65.4953C161.051 64.1552 161.802 62.8286 162.474 61.4709C162.73 60.9541 162.95 60.3613 162.926 59.8133C162.908 59.3911 162.589 58.8258 162.206 58.6189C161.868 58.4356 161.172 58.5255 160.785 58.7295C159.947 59.1717 155.854 67.9971 154.803 70.1338C154.548 70.6519 154.371 71.2515 154.383 71.8087C154.392 72.208 154.676 72.7932 155.022 72.9376C155.348 73.0738 155.963 72.812 156.362 72.5936C156.679 72.4206 156.876 72.0569 157.104 71.7634C159.794 68.2879 162.797 65.064 166.402 62.3226C166.66 62.1267 166.944 61.96 167.386 61.6679C167.263 61.9839 167.227 62.0862 167.183 62.1857C166.151 64.5385 165.069 66.8753 164.112 69.2525C163.798 70.0337 163.686 70.9207 163.694 71.7569C163.705 72.898 164.819 73.4365 165.967 72.943C166.35 72.7783 166.715 72.563 167.05 72.3277C168.861 71.0587 170.672 69.789 172.461 68.4956C175.707 66.1494 178.945 63.7939 182.163 61.4157C182.418 61.2275 182.486 60.8336 182.641 60.5353C182.242 60.4076 181.808 60.1235 181.453 60.19Z" fill="#D79A29"/>
<path d="M117.316 70.1034C117.393 69.8646 117.381 69.6159 117.23 69.362C117.275 69.4373 117.185 69.3089 117.155 69.2756C117.142 69.2627 117.128 69.2507 117.114 69.2384C117.112 69.2372 117.111 69.2363 117.109 69.2349C117.072 69.2149 117.035 69.1941 116.999 69.1739C116.989 69.1748 116.878 69.1333 116.849 69.1266C116.833 69.1228 116.816 69.1203 116.799 69.1171C116.789 69.1165 116.774 69.1153 116.752 69.1134C116.746 69.1136 116.741 69.1136 116.735 69.1138C115.698 70.0559 114.608 70.9521 113.448 71.7853C112.772 72.2708 111.976 72.6202 111.235 73.0323C111.17 72.9626 111.105 72.8929 111.039 72.8232C111.056 72.6916 111.057 72.5564 111.093 72.429C111.211 72.0024 111.279 71.5529 111.478 71.1578C113.107 67.926 114.759 64.7036 116.411 61.4815C116.603 61.1073 116.872 60.764 117.052 60.3856C117.315 59.83 117.316 59.1959 116.683 58.9386C116.246 58.7609 115.597 58.8665 115.096 59.0048C114.757 59.0984 114.469 59.44 114.23 59.7203C111.656 62.739 109.507 65.9788 108.461 69.692C108.133 70.8542 108.113 72.1589 108.312 73.3482C108.549 74.7703 110.079 75.3908 111.548 74.8131C112.321 74.5092 113.119 74.1256 113.711 73.5995C114.366 73.0175 115.013 72.4266 115.655 71.8307C116.091 71.4263 117.088 70.8084 117.316 70.1034Z" fill="#D79A29"/>
<path d="M328.622 33.3561C325.642 32.9663 322.39 33.7889 319.459 35.6768C318.625 36.215 317.88 36.7806 317.242 37.3574C317.206 37.3914 317.17 37.4265 317.134 37.4628C317.095 37.5024 317.055 37.542 317.013 37.5783H317.008L316.963 37.6191L316.963 37.618L316.942 37.6305C316.9 37.6577 316.853 37.6849 316.803 37.7052C316.771 37.7189 316.745 37.7234 316.726 37.7246C316.689 37.669 316.684 37.6588 316.668 37.6079C316.629 37.4809 316.61 37.3404 316.607 37.167C316.599 36.7206 316.613 36.2061 316.773 35.7822C316.99 35.2088 317.533 34.7613 318.086 34.3635C318.728 33.9023 319.429 33.4932 320.108 33.0967C320.991 32.5821 321.904 32.0496 322.706 31.3923C323.496 30.744 324.019 30.1004 324.304 29.424C324.673 28.5502 324.688 27.4975 324.342 26.6782C323.776 25.3342 322.264 24.4922 320.298 24.4277C319.612 24.4085 318.723 24.4526 317.988 25.0271C317.413 25.4725 316.943 26.1207 316.59 26.9537C316.583 26.9696 316.576 26.9864 316.569 27.0023H316.569C316.568 27.0035 316.567 27.0035 316.566 27.0045C316.304 27.2369 316.109 27.4636 315.968 27.6982C315.688 28.1662 315.55 28.6886 315.569 29.2109C315.591 29.8466 315.774 30.4733 316.083 30.9765C316.172 31.1237 316.36 31.1918 316.538 31.143C316.717 31.0966 316.834 30.9538 316.829 30.7871C316.808 30.105 317.205 29.5316 317.542 29.1714C317.703 28.9991 317.859 28.8517 318.02 28.7214C318.042 28.7032 318.064 28.6863 318.086 28.6681C318.119 28.6647 318.153 28.6568 318.184 28.6489C318.862 28.5514 320.07 28.2942 320.954 27.5849C321.318 27.5871 321.615 27.6664 321.834 27.8228C321.953 27.9068 322.019 28.0211 322.037 28.1707C322.091 28.6364 321.659 29.2982 321.356 29.6291C320.844 30.1878 320.16 30.6026 319.559 30.9481C319.238 31.1329 318.913 31.3097 318.588 31.4876C318.142 31.7312 317.682 31.9816 317.239 32.2479C315.977 33.007 314.269 34.2276 313.999 36.0623C313.758 37.6951 314.312 39.8562 316.096 40.7422C316.825 41.105 317.689 41.259 318.49 41.1683C319.1 41.6318 319.861 42.0307 320.756 42.356C322.406 42.9554 324.186 43.0325 325.791 42.5792V49.3455C325.791 49.5812 325.997 49.7091 326.191 49.7091C326.385 49.7091 326.592 49.5812 326.592 49.3455V42.0578C326.592 41.9377 326.521 41.8176 326.406 41.745C326.303 41.6793 326.18 41.6634 326.072 41.7043C324.13 42.4069 321.893 42.2175 319.939 41.174C319.491 40.9348 319.138 40.7127 318.89 40.5132C318.781 40.4259 318.663 40.3965 318.509 40.4181L318.418 40.4293C318.296 40.4396 318.181 40.4463 318.076 40.4442C316.785 40.4442 315.71 39.8152 315.198 38.7614C314.763 37.8684 314.624 36.8327 314.823 35.9896C314.99 35.2826 315.398 34.6287 316.036 34.0474C316.882 33.2757 317.926 32.7079 318.935 32.1595C319.437 31.8864 319.956 31.6054 320.447 31.3005C321.084 30.905 321.736 30.4541 322.187 29.8342C322.587 29.2835 323.171 28.2477 322.588 27.4963C322.293 27.1156 321.764 26.8924 321.061 26.8493L321.02 26.8471C320.869 26.8404 320.664 26.8245 320.519 26.9501C320.356 27.093 320.174 27.1996 320.002 27.2935C319.523 27.5554 319.004 27.7424 318.46 27.8476C318.392 27.8613 318.319 27.8681 318.244 27.876C318.048 27.8953 317.825 27.9179 317.654 28.0415C317.57 28.1005 317.489 28.1662 317.41 28.2331C316.966 28.6104 316.616 29.0251 316.38 29.4489C316.318 28.8687 316.453 28.3226 316.771 27.9078C316.827 27.8342 316.899 27.7663 316.975 27.6936C317.108 27.569 317.245 27.4398 317.315 27.2642C317.371 27.126 317.427 27.0058 317.503 26.863C317.715 26.4631 318.056 25.8908 318.566 25.5429C319.173 25.127 319.928 25.1338 320.582 25.187C321.404 25.2584 322.124 25.4817 322.663 25.834C323.253 26.2194 323.626 26.7916 323.742 27.492C323.885 28.3498 323.624 29.2869 323.042 29.9963C322.175 31.0523 320.902 31.7856 319.67 32.4938C319.323 32.6932 318.979 32.8903 318.647 33.0944C318.021 33.4762 317.243 33.9534 316.664 34.5686C316.39 34.8587 316.194 35.1409 316.063 35.4309C315.875 35.8559 315.837 36.3262 315.813 36.8123C315.794 37.1897 315.736 38.3411 316.576 38.4542C316.891 38.4951 317.226 38.3863 317.528 38.1438C317.713 37.9965 317.889 37.8377 318.065 37.6804C318.256 37.5081 318.453 37.3313 318.658 37.1727C320.351 35.8582 323.049 34.2434 326.288 34.0202C328.171 33.8898 330.066 34.257 331.763 35.082C333.893 36.1154 335.834 37.7823 337.699 40.179C337.852 40.3761 338.12 40.3727 338.291 40.2606C338.467 40.1415 338.502 39.9467 338.376 39.7835C335.415 35.9804 332.133 33.8173 328.622 33.3561Z" fill="#F15A3B"/>
<path d="M328.661 33.3297C327.082 33.126 325.472 33.2631 323.933 33.6629C322.265 34.0961 320.685 34.8333 319.248 35.7801C318.819 36.063 318.4 36.3621 317.995 36.6799C317.633 36.9649 317.298 37.2738 316.957 37.5821C316.989 37.5721 317.021 37.562 317.053 37.5519C316.987 37.5519 316.952 37.5813 316.906 37.6228C316.946 37.616 316.985 37.6092 317.025 37.6024C317.024 37.602 317.024 37.6017 317.024 37.6013C317.01 37.5711 316.933 37.6039 316.914 37.615C316.867 37.6444 316.808 37.6915 316.752 37.6982C316.764 37.7014 316.776 37.7047 316.788 37.7079C316.683 37.5485 316.672 37.3357 316.668 37.1502C316.662 36.9242 316.666 36.6969 316.686 36.4717C316.726 36.0255 316.851 35.6151 317.13 35.2596C317.399 34.9173 317.748 34.6446 318.099 34.3913C318.485 34.112 318.887 33.8556 319.294 33.6087C320.101 33.1197 320.931 32.6681 321.719 32.1487C322.472 31.6526 323.21 31.0919 323.776 30.3832C324.274 29.7596 324.588 29.0272 324.644 28.2269C324.697 27.4674 324.521 26.697 324.074 26.074C323.25 24.9245 321.777 24.4645 320.42 24.4045C319.696 24.3724 318.939 24.437 318.293 24.7923C317.626 25.1592 317.124 25.7948 316.77 26.4568C316.673 26.6377 316.587 26.8237 316.507 27.0127C316.541 27.0004 316.575 26.9881 316.608 26.9759C316.549 26.9759 316.514 27.0033 316.472 27.0415C316.347 27.1533 316.23 27.2744 316.123 27.4036C315.939 27.6272 315.794 27.8812 315.69 28.1512C315.467 28.7271 315.464 29.3466 315.6 29.9437C315.667 30.2365 315.768 30.5221 315.906 30.7892C316.014 30.9988 316.129 31.1855 316.39 31.1849C316.569 31.1844 316.775 31.1003 316.856 30.9326C316.907 30.8286 316.886 30.7104 316.894 30.5987C316.905 30.4361 316.941 30.2756 316.995 30.1219C317.203 29.5284 317.659 29.0498 318.142 28.6642C318.119 28.6736 318.097 28.683 318.074 28.6924C319.105 28.5453 320.173 28.2438 321.001 27.5877C320.972 27.5955 320.943 27.6033 320.914 27.6111C321.338 27.6175 321.984 27.7391 321.979 28.2787C321.974 28.7218 321.678 29.1722 321.41 29.5039C320.756 30.3106 319.763 30.8137 318.869 31.304C317.32 32.1534 315.583 33.007 314.563 34.515C314.096 35.2036 313.884 35.9828 313.883 36.8101C313.881 37.5937 314.046 38.3882 314.399 39.0905C314.761 39.8116 315.329 40.4158 316.057 40.7732C316.518 40.9999 317.021 41.1406 317.532 41.1952C317.784 41.2222 318.038 41.2276 318.291 41.2102C318.347 41.2063 318.409 41.1887 318.462 41.2128C318.511 41.235 318.56 41.2847 318.603 41.3155C318.706 41.3883 318.81 41.458 318.917 41.525C320.713 42.6554 322.942 43.1448 325.038 42.7732C325.293 42.7279 325.546 42.6696 325.796 42.5998C325.774 42.5984 325.751 42.5971 325.729 42.5957C325.729 43.4811 325.729 44.3664 325.729 45.2517C325.729 46.4945 325.729 47.7373 325.729 48.98C325.729 49.0981 325.727 49.2163 325.729 49.3344C325.732 49.6361 326.013 49.7818 326.288 49.7202C326.517 49.669 326.652 49.5102 326.653 49.279C326.653 49.152 326.653 49.0251 326.653 48.8981C326.653 47.6634 326.653 46.4287 326.653 45.194C326.653 44.1664 326.653 43.1388 326.653 42.1113C326.653 41.8791 326.512 41.6746 326.261 41.6564C326.158 41.649 326.066 41.6838 325.97 41.7169C325.817 41.7704 325.661 41.818 325.504 41.8601C325.188 41.9445 324.867 42.0061 324.543 42.0447C323.291 42.1939 322.012 42.0059 320.842 41.544C320.254 41.312 319.679 41.0133 319.16 40.6506C318.97 40.5175 318.824 40.3682 318.576 40.3873C318.318 40.4071 318.066 40.4263 317.807 40.4056C316.758 40.3216 315.781 39.7568 315.291 38.8081C314.749 37.7594 314.597 36.4322 315.105 35.3434C315.644 34.1895 316.771 33.4287 317.835 32.8029C318.953 32.1454 320.147 31.6031 321.197 30.8353C321.652 30.503 322.058 30.1186 322.37 29.6474C322.645 29.2324 322.889 28.7454 322.895 28.2371C322.901 27.7286 322.603 27.3099 322.159 27.0825C321.925 26.9622 321.667 26.8932 321.407 26.8547C321.201 26.8242 320.968 26.7942 320.76 26.8269C320.654 26.8436 320.555 26.8807 320.47 26.9472C320.339 27.0498 320.21 27.145 320.065 27.2282C319.774 27.3961 319.465 27.5353 319.147 27.6438C318.817 27.7561 318.487 27.8213 318.142 27.8634C317.877 27.8958 317.674 27.9786 317.465 28.1451C317.009 28.5084 316.605 28.9498 316.319 29.4593C316.36 29.4502 316.401 29.4412 316.442 29.4322C316.388 28.8911 316.494 28.3001 316.851 27.8725C317.017 27.6739 317.245 27.53 317.36 27.2904C317.466 27.0679 317.562 26.8446 317.686 26.6302C317.943 26.184 318.268 25.7432 318.72 25.4778C319.221 25.1828 319.824 25.165 320.389 25.2019C321.414 25.269 322.576 25.5706 323.225 26.4303C323.86 27.2705 323.839 28.4437 323.392 29.3632C323.15 29.8608 322.774 30.2756 322.367 30.6454C321.95 31.0253 321.489 31.3545 321.015 31.6591C320.044 32.2824 319.017 32.8119 318.045 33.435C317.15 34.0099 316.131 34.7512 315.867 35.844C315.766 36.2574 315.741 36.6979 315.742 37.1229C315.742 37.4364 315.773 37.7726 315.924 38.0535C316.093 38.3685 316.408 38.512 316.759 38.4857C317.304 38.4447 317.7 38.0536 318.086 37.7079C318.795 37.0724 319.564 36.5161 320.378 36.0228C322.253 34.8865 324.377 34.1154 326.582 34.0289C327.796 33.9813 329.016 34.1432 330.176 34.5009C331.217 34.8222 332.201 35.3086 333.115 35.8988C333.992 36.4649 334.804 37.1288 335.554 37.8547C335.962 38.2499 336.352 38.6634 336.726 39.0908C336.917 39.3095 337.105 39.5318 337.288 39.7574C337.387 39.8792 337.485 40.0019 337.582 40.1254C337.656 40.2197 337.724 40.3024 337.841 40.341C338.175 40.4508 338.707 40.143 338.437 39.7669C338.101 39.2982 337.707 38.8589 337.323 38.4294C336.594 37.6152 335.809 36.8502 334.956 36.1662C333.474 34.9772 331.777 34.0366 329.927 33.5711C329.51 33.4662 329.088 33.3864 328.661 33.3297C328.633 33.3259 328.519 33.3741 328.582 33.3824C330.451 33.631 332.214 34.3724 333.773 35.4226C334.633 36.002 335.432 36.6696 336.174 37.3928C336.573 37.7818 336.956 38.1873 337.325 38.6056C337.524 38.8323 337.72 39.0627 337.911 39.2965C337.999 39.404 338.086 39.5122 338.172 39.621C338.259 39.7296 338.382 39.8441 338.388 39.9913C338.395 40.1524 338.258 40.289 338.103 40.3081C337.94 40.3281 337.823 40.2392 337.728 40.1199C337.543 39.888 337.359 39.6558 337.169 39.4285C336.797 38.9852 336.409 38.555 336.004 38.1425C335.261 37.3878 334.457 36.6917 333.584 36.091C332.738 35.5084 331.827 35.0095 330.863 34.6506C329.765 34.2418 328.6 34.0127 327.429 33.974C325.248 33.9017 323.096 34.5071 321.173 35.5142C320.375 35.9323 319.612 36.4177 318.89 36.9565C318.469 37.2704 318.087 37.6241 317.69 37.9662C317.429 38.1903 317.151 38.4142 316.793 38.4346C316.589 38.4462 316.384 38.3906 316.23 38.2547C315.98 38.0344 315.902 37.6735 315.876 37.3558C315.847 37.0025 315.873 36.6365 315.911 36.2854C315.944 35.983 316.005 35.6801 316.132 35.4022C316.254 35.135 316.426 34.8928 316.62 34.6731C317.004 34.2391 317.468 33.8856 317.949 33.5663C318.902 32.9329 319.92 32.4072 320.891 31.8034C321.778 31.2515 322.713 30.6036 323.3 29.7183C323.858 28.875 324.038 27.7298 323.592 26.7978C323.157 25.8863 322.197 25.4325 321.249 25.2479C320.313 25.0657 319.172 25.0103 318.384 25.6388C318.016 25.9326 317.742 26.3291 317.515 26.7374C317.453 26.8484 317.393 26.9607 317.339 27.0757C317.276 27.2114 317.23 27.3525 317.137 27.4715C316.984 27.6655 316.779 27.8065 316.64 28.0137C316.355 28.4402 316.267 28.9612 316.318 29.4654C316.321 29.4985 316.431 29.4566 316.441 29.4383C316.742 28.9038 317.191 28.3891 317.701 28.0443C317.955 27.873 318.309 27.9048 318.6 27.8402C318.904 27.7729 319.202 27.6806 319.489 27.5631C319.76 27.4524 320.025 27.322 320.273 27.1668C320.337 27.1271 320.399 27.0852 320.459 27.0401C320.526 26.9893 320.587 26.9217 320.667 26.8925C320.788 26.8481 320.937 26.8694 321.064 26.8786C321.57 26.9152 322.12 27.057 322.471 27.4483C323.225 28.2895 322.423 29.5888 321.787 30.2427C321.369 30.673 320.866 31.0095 320.357 31.3229C319.781 31.6784 319.181 31.9947 318.587 32.3195C317.53 32.8976 316.415 33.5133 315.607 34.4278C315.242 34.8402 314.952 35.3209 314.8 35.852C314.646 36.3859 314.639 36.9555 314.729 37.5013C314.901 38.5472 315.408 39.5396 316.362 40.0622C316.793 40.2981 317.276 40.4269 317.765 40.4611C318.002 40.4777 318.237 40.4707 318.473 40.4453C318.624 40.4292 318.737 40.4628 318.855 40.554C318.956 40.6318 319.059 40.706 319.166 40.7761C321.133 42.0745 323.634 42.5278 325.894 41.7883C325.984 41.7587 326.085 41.7099 326.181 41.709C326.264 41.7084 326.352 41.7596 326.411 41.8153C326.486 41.8863 326.524 41.9748 326.529 42.0761C326.53 42.0988 326.529 42.1217 326.529 42.1444C326.529 42.2775 326.529 42.4106 326.529 42.5437C326.529 43.0675 326.529 43.5912 326.529 44.1149C326.529 45.4409 326.529 46.7668 326.529 48.0927C326.529 48.4802 326.529 48.8676 326.529 49.2551C326.529 49.4618 326.471 49.698 326.2 49.6815C326.002 49.6694 325.859 49.5187 325.852 49.3242C325.852 49.2976 325.852 49.2708 325.852 49.2443C325.852 48.2036 325.852 47.1629 325.852 46.1222C325.852 45.0012 325.852 43.8802 325.852 42.7592C325.852 42.6936 325.852 42.628 325.852 42.5624C325.852 42.5429 325.79 42.5569 325.785 42.5583C324.289 42.9759 322.686 42.9226 321.206 42.4653C320.498 42.2469 319.807 41.9479 319.172 41.5672C319.034 41.4847 318.899 41.3979 318.767 41.3062C318.704 41.2621 318.644 41.2109 318.579 41.1698C318.522 41.1339 318.504 41.144 318.43 41.1507C318.044 41.1858 317.653 41.1641 317.272 41.0924C316.624 40.9704 315.995 40.7088 315.485 40.2866C315.059 39.9337 314.724 39.4813 314.486 38.9833C314.035 38.0396 313.883 36.8964 314.091 35.869C314.332 34.68 315.19 33.741 316.127 33.0269C317.205 32.2059 318.436 31.6236 319.606 30.9509C320.192 30.6139 320.777 30.2559 321.262 29.7795C321.472 29.5731 321.655 29.3425 321.806 29.0898C321.948 28.8534 322.077 28.5869 322.099 28.3087C322.125 27.9967 321.956 27.8021 321.68 27.684C321.557 27.6313 321.427 27.5989 321.294 27.58C321.185 27.5643 321.021 27.5234 320.917 27.5753C320.856 27.6059 320.801 27.6638 320.745 27.7038C320.679 27.7506 320.612 27.7952 320.544 27.8379C320.39 27.9341 320.229 28.0195 320.064 28.0962C319.776 28.2302 319.476 28.3364 319.17 28.4215C318.908 28.4945 318.642 28.5521 318.374 28.5966C318.275 28.613 318.157 28.6152 318.064 28.6525C318.013 28.6726 317.972 28.7175 317.931 28.7515C317.855 28.8151 317.78 28.881 317.708 28.9495C317.258 29.3768 316.855 29.908 316.778 30.5419C316.762 30.6741 316.793 30.8316 316.734 30.9536C316.627 31.1701 316.334 31.1799 316.181 31.0095C316.068 30.8831 315.994 30.6953 315.928 30.5411C315.852 30.3652 315.791 30.1831 315.744 29.9976C315.561 29.2721 315.593 28.5177 315.941 27.8455C316.023 27.6856 316.121 27.535 316.235 27.3959C316.347 27.2607 316.474 27.109 316.616 27.0051C316.586 27.013 316.557 27.0208 316.528 27.0286C316.528 27.0286 316.528 27.0286 316.529 27.0286C316.556 27.0286 316.617 27.0221 316.63 26.9917C316.929 26.2785 317.346 25.6014 317.945 25.1019C318.594 24.5617 319.404 24.4319 320.225 24.4532C321.582 24.4885 323.07 24.9285 323.916 26.0602C324.356 26.6499 324.55 27.3795 324.527 28.111C324.502 28.9244 324.208 29.6865 323.713 30.3277C323.165 31.037 322.442 31.5973 321.701 32.0915C320.943 32.5972 320.144 33.0365 319.363 33.5041C318.629 33.9434 317.854 34.4 317.246 35.0108C316.975 35.2843 316.754 35.601 316.652 35.9765C316.544 36.3735 316.532 36.7977 316.545 37.2067C316.55 37.385 316.563 37.5882 316.664 37.7411C316.671 37.752 316.687 37.7522 316.699 37.7508C316.815 37.7368 316.912 37.6812 317.01 37.6209C316.973 37.6254 316.937 37.63 316.9 37.6345C316.9 37.6349 316.9 37.6352 316.901 37.6356C316.916 37.6682 317.002 37.6302 317.019 37.6151C317.034 37.6015 317.049 37.588 317.064 37.5744C317.032 37.5845 317 37.5945 316.968 37.6046C317.093 37.6046 317.175 37.4706 317.257 37.3922C317.405 37.2503 317.563 37.1178 317.72 36.9864C318.06 36.7022 318.412 36.433 318.773 36.1765C319.503 35.6571 320.269 35.1877 321.072 34.7877C322.589 34.0316 324.236 33.5155 325.926 33.3477C326.81 33.26 327.701 33.2688 328.582 33.3824C328.61 33.3861 328.724 33.3378 328.661 33.3297Z" fill="#F15A3B"/>
<path d="M329.708 35.6306C328.016 35.259 326.134 35.3881 324.267 36.0001C323.258 36.331 322.487 36.6709 321.841 37.0721C321.717 37.1491 321.651 37.2703 321.661 37.4063C321.671 37.5468 321.762 37.6748 321.891 37.7337C322.008 37.7893 322.141 37.7768 322.259 37.7044C322.678 37.4438 323.143 37.2352 323.501 37.0834C325.087 36.4102 326.704 36.0942 328.187 36.1724C330.97 36.3173 332.849 37.8721 333.936 39.1514C334.009 39.2376 334.108 39.284 334.213 39.284C334.229 39.284 334.246 39.2829 334.261 39.2806C334.4 39.2626 334.526 39.165 334.583 39.0324C334.64 38.901 334.618 38.7605 334.523 38.6495C333.181 37.0698 331.516 36.0261 329.708 35.6306Z" fill="#F15A3B"/>
<path d="M329.758 35.6044C328.708 35.3755 327.625 35.3422 326.559 35.4659C325.439 35.596 324.346 35.9052 323.3 36.3218C322.868 36.4939 322.444 36.6886 322.04 36.9195C321.873 37.0146 321.65 37.1097 321.606 37.3174C321.562 37.5217 321.702 37.7276 321.9 37.7821C322.155 37.8523 322.375 37.6624 322.584 37.5477C322.812 37.4226 323.047 37.3098 323.285 37.2044C323.795 36.9787 324.317 36.7811 324.851 36.6235C325.882 36.3196 326.961 36.1529 328.037 36.1956C328.996 36.2336 329.942 36.4468 330.82 36.8355C331.565 37.1651 332.252 37.6157 332.866 38.1491C333.134 38.3815 333.388 38.6295 333.627 38.8906C333.681 38.9496 333.735 39.0093 333.788 39.0696C333.851 39.142 333.908 39.2226 333.995 39.2678C334.178 39.3627 334.418 39.2987 334.557 39.1536C334.63 39.0766 334.676 38.9732 334.675 38.8661C334.674 38.7396 334.601 38.6505 334.522 38.5596C334.359 38.3711 334.19 38.1883 334.014 38.0119C333.666 37.6626 333.293 37.3385 332.895 37.0464C332.143 36.4934 331.304 36.0557 330.412 35.7777C330.197 35.7105 329.978 35.6529 329.758 35.6044C329.73 35.5983 329.696 35.604 329.671 35.6187C329.661 35.6247 329.628 35.6502 329.657 35.6567C330.539 35.8509 331.383 36.1979 332.153 36.6695C332.963 37.1658 333.689 37.7932 334.319 38.5039C334.4 38.5955 334.505 38.6897 334.539 38.8109C334.571 38.9248 334.537 39.0481 334.462 39.1378C334.383 39.2322 334.269 39.2811 334.148 39.2386C334.049 39.2035 333.988 39.1226 333.922 39.046C333.706 38.7971 333.477 38.5588 333.236 38.3334C332.68 37.8124 332.058 37.3599 331.382 37.0061C330.602 36.5976 329.755 36.3258 328.883 36.2059C327.89 36.0696 326.874 36.128 325.892 36.319C324.863 36.5192 323.862 36.864 322.917 37.3164C322.682 37.4289 322.454 37.5522 322.231 37.6869C322.104 37.7632 321.968 37.7479 321.856 37.6522C321.777 37.5844 321.727 37.4849 321.722 37.3804C321.71 37.138 321.951 37.0352 322.129 36.9338C322.316 36.8274 322.508 36.7285 322.703 36.6362C323.152 36.4233 323.617 36.2453 324.087 36.0853C324.624 35.9027 325.171 35.7514 325.728 35.6446C326.777 35.4436 327.857 35.3907 328.917 35.5283C329.166 35.5605 329.413 35.6033 329.657 35.6567C329.685 35.6628 329.72 35.6571 329.744 35.6423C329.754 35.6364 329.787 35.6109 329.758 35.6044Z" fill="#F15A3B"/>
<path d="M326.198 17.4463C314.761 17.4463 305.457 26.0755 305.457 36.6831C305.457 47.2909 314.761 55.9201 326.198 55.9201C337.635 55.9201 346.939 47.2908 346.939 36.6831C346.939 26.0755 337.635 17.4463 326.198 17.4463ZM326.198 54.9139C315.36 54.9139 306.543 46.7356 306.543 36.6831C306.543 26.6307 315.36 18.4526 326.198 18.4526C337.036 18.4526 345.853 26.6307 345.853 36.6831C345.853 46.7356 337.036 54.9139 326.198 54.9139Z" fill="#F15A3B"/>
<path d="M326.237 17.4199C324.091 17.4228 321.948 17.723 319.89 18.3332C317.926 18.9155 316.043 19.7732 314.322 20.8853C312.632 21.9775 311.098 23.3142 309.8 24.8529C308.521 26.3683 307.472 28.0787 306.724 29.9159C305.965 31.7791 305.521 33.7663 305.418 35.7756C305.313 37.8238 305.56 39.8865 306.149 41.8511C306.724 43.7665 307.62 45.5802 308.773 47.2131C309.927 48.8467 311.333 50.2974 312.918 51.5163C314.546 52.7687 316.36 53.7752 318.279 54.5075C320.282 55.2716 322.396 55.7338 324.533 55.888C326.702 56.0446 328.894 55.888 331.017 55.4176C333.044 54.9687 335.007 54.2327 336.824 53.228C338.584 52.2547 340.206 51.0319 341.613 49.5938C343.002 48.1743 344.179 46.5461 345.071 44.7709C345.975 42.972 346.581 41.0262 346.845 39.0299C347.113 37.0038 347.034 34.9332 346.609 32.9341C346.191 30.9734 345.441 29.0888 344.413 27.3688C343.391 25.6593 342.1 24.1149 340.613 22.7907C339.079 21.4245 337.339 20.293 335.475 19.4315C333.567 18.5498 331.532 17.9516 329.452 17.6506C328.387 17.4966 327.313 17.4214 326.237 17.4199C326.21 17.4199 326.097 17.4725 326.158 17.4726C328.314 17.4755 330.466 17.782 332.531 18.4032C334.51 18.9984 336.403 19.8777 338.129 21.0153C339.782 22.1055 341.281 23.4319 342.55 24.9531C343.812 26.465 344.843 28.1691 345.578 29.9968C346.321 31.845 346.756 33.8136 346.854 35.8034C346.955 37.8225 346.713 39.8549 346.138 41.7932C345.582 43.6672 344.718 45.4456 343.607 47.0527C342.469 48.6968 341.074 50.1597 339.501 51.3912C337.879 52.6597 336.068 53.6826 334.149 54.4265C332.143 55.204 330.023 55.6756 327.878 55.8333C325.681 55.9947 323.46 55.8331 321.312 55.345C319.287 54.8848 317.329 54.1352 315.519 53.1157C313.784 52.1375 312.186 50.9131 310.802 49.479C309.432 48.0601 308.274 46.4367 307.399 44.6687C306.521 42.8968 305.933 40.9845 305.673 39.0238C305.407 37.011 305.484 34.9534 305.904 32.9668C306.309 31.0493 307.032 29.2037 308.023 27.5134C309.027 25.7999 310.303 24.2499 311.775 22.9174C313.284 21.5517 314.997 20.4161 316.836 19.5456C318.757 18.6365 320.812 18.0202 322.914 17.7097C323.987 17.5511 325.072 17.474 326.158 17.4725C326.185 17.4726 326.298 17.4199 326.237 17.4199Z" fill="#F15A3B"/>
<path d="M326.237 54.8874C324.194 54.8846 322.155 54.5942 320.198 54.0055C318.322 53.4415 316.529 52.6082 314.894 51.5301C313.327 50.4969 311.907 49.2399 310.704 47.7982C309.508 46.3654 308.531 44.7505 307.835 43.0186C307.131 41.2671 306.719 39.4015 306.625 37.5158C306.53 35.6025 306.759 33.6766 307.304 31.8399C307.831 30.0638 308.649 28.3785 309.703 26.8555C310.78 25.2977 312.102 23.9115 313.593 22.7446C315.129 21.5428 316.845 20.5736 318.663 19.8687C320.563 19.1322 322.571 18.6855 324.603 18.5361C326.685 18.3831 328.789 18.5362 330.824 18.9988C332.743 19.4349 334.599 20.1452 336.313 21.1113C337.958 22.0383 339.472 23.1987 340.784 24.5578C342.081 25.9025 343.179 27.4408 344.008 29.1162C344.84 30.7954 345.398 32.6076 345.643 34.4657C345.896 36.3731 345.823 38.3228 345.425 40.2054C345.041 42.0226 344.356 43.7716 343.417 45.3735C342.465 46.9973 341.256 48.466 339.862 49.7287C338.432 51.0227 336.809 52.0988 335.066 52.9236C333.247 53.7848 331.3 54.3686 329.31 54.6627C328.293 54.813 327.265 54.886 326.237 54.8874C326.209 54.8875 326.096 54.9402 326.157 54.9401C328.192 54.9374 330.223 54.6528 332.175 54.0743C334.037 53.5222 335.821 52.709 337.453 51.6547C339.055 50.6194 340.509 49.3525 341.739 47.8942C342.951 46.4578 343.945 44.8369 344.654 43.0956C345.373 41.3298 345.794 39.4465 345.892 37.5422C345.991 35.6012 345.757 33.6464 345.199 31.7847C344.654 29.9695 343.805 28.2506 342.713 26.7032C341.619 25.155 340.286 23.78 338.784 22.6248C337.241 21.4378 335.522 20.4839 333.703 19.7899C331.806 19.0657 329.802 18.6276 327.776 18.4814C325.72 18.333 323.642 18.4815 321.63 18.9274C319.709 19.353 317.847 20.0508 316.125 21.0032C314.457 21.9259 312.919 23.0849 311.586 24.4481C310.269 25.7934 309.154 27.3365 308.308 29.019C307.452 30.7238 306.878 32.5678 306.628 34.4596C306.374 36.3797 306.448 38.3421 306.852 40.2367C307.247 42.0948 307.958 43.8808 308.932 45.5109C309.9 47.131 311.125 48.5948 312.533 49.8498C313.987 51.1446 315.636 52.217 317.402 53.0334C319.211 53.8693 321.14 54.4362 323.111 54.7215C324.12 54.8675 325.138 54.9388 326.157 54.9401C326.185 54.9401 326.298 54.8875 326.237 54.8874Z" fill="#F15A3B"/>
<path d="M262.316 65.2011C263.085 64.8934 263.777 64.6631 263.777 64.6631C263.785 64.6719 263.703 64.6586 263.696 64.6905C263.914 64.6057 264.214 64.5524 264.428 64.4562C264.84 64.2705 267.122 63.7344 267.45 63.4168C267.757 63.1191 268.37 62.399 267.836 62.2447C267.543 62.1599 265.061 62.7064 264.719 62.8079C264.277 62.8965 263.961 62.9038 263.546 63.0492C261.471 63.7398 260.702 63.8937 260.394 63.6635C260.164 63.4333 259.626 63.3557 259.164 63.4333C258.319 63.6635 258.242 63.5096 258.857 62.6639C259.472 61.8956 258.934 60.896 257.935 60.896C256.551 60.896 252.554 66.5074 251.016 70.7361C249.479 74.7323 249.633 76.8855 251.324 77.7313C252.554 78.3456 254.322 77.6537 256.013 75.732C258.011 73.58 260.856 68.045 260.856 66.4311C260.856 65.9694 261.24 65.6616 262.316 65.2011ZM257.473 69.121C256.782 70.5823 255.552 72.4265 254.783 73.2722C253.476 74.7323 252.861 75.1177 252.861 74.5021C252.861 73.2722 256.243 66.1232 257.627 64.4317C257.935 64.1252 258.088 64.0476 257.935 64.2015C257.858 64.4317 258.011 65.0472 258.319 65.5089C258.857 66.431 258.857 66.431 257.473 69.121Z" fill="#D79A29"/>
<path d="M335.187 67.8911C328.884 67.7372 323.118 67.7372 322.35 67.8148C321.581 67.8911 316.892 68.045 311.895 68.1226C306.899 68.2753 299.904 68.4291 296.368 68.583C292.832 68.8145 289.911 68.8908 289.834 68.8145C289.834 68.7369 289.757 67.2768 289.757 65.509C289.68 62.2798 289.373 60.896 288.45 60.896C288.22 60.896 285.298 63.6635 281.916 66.969C276.458 72.3501 273.461 75.0401 273.461 74.656C273.461 74.118 276.92 66.3535 278.303 63.6635C280.763 59.0519 286.067 50.673 290.833 43.8319C293.293 40.2949 293.6 39.3728 292.371 39.3728C291.525 39.3728 289.834 41.4485 284.299 49.6734C279.841 56.1305 278.38 57.8983 273.999 61.8181C271.155 64.4317 270.616 64.8171 269.848 64.6632C268.541 64.5093 267.772 65.6616 268.31 66.8927C268.456 67.1847 268.515 67.4076 268.463 67.6846C268.609 67.7636 268.766 67.8162 268.943 67.8229C269.176 67.8318 269.424 67.7939 269.655 67.76C270.039 67.7035 270.72 67.6267 270.922 67.2381C270.944 67.1961 270.974 67.1689 271.007 67.1539C271.52 66.4003 272.347 65.497 273.768 64.1251L276.612 61.3576L274.614 65.355C273.461 67.5832 272.077 70.8887 271.462 72.6578C270.463 75.6555 270.386 76.116 270.77 76.8078C271.231 77.8839 272.384 78.1153 273.691 77.4234C274.152 77.192 275.997 75.5779 277.765 73.964C279.533 72.2724 280.84 71.1202 280.763 71.2741C280.071 72.4263 283.992 76.8854 286.298 77.5773C287.297 77.8838 287.758 77.8838 288.527 77.4998C290.141 76.8854 290.526 76.0397 290.295 73.2721L290.064 70.8124L293.216 70.5822C297.905 70.1969 344.181 70.3507 344.642 70.7361C345.103 71.1202 346.871 70.2744 347.409 69.4287C348.101 68.1989 347.255 68.1226 335.187 67.8911ZM281.916 70.0444C281.609 70.197 282.454 68.9671 283.915 67.4308C285.375 65.8156 286.528 64.7396 286.605 64.9711C286.605 65.2013 286.682 66.2009 286.759 67.2769L286.913 69.1211L284.684 69.4289C283.53 69.659 282.3 69.8905 281.916 70.0444ZM286.99 74.7324C286.144 74.7324 283.146 71.9661 283.684 71.6583C283.915 71.5807 284.76 71.3505 285.529 71.2742C287.143 71.0427 287.143 70.9664 287.451 73.2723C287.605 74.656 287.528 74.7324 286.99 74.7324Z" fill="#D79A29"/>
<path d="M270.385 66.9091C270.358 66.6312 270.318 66.3562 270.299 66.0774C270.278 65.7842 270.259 65.4876 270.208 65.1979C270.167 64.9593 270.072 64.7442 270.008 64.5144C269.987 64.5037 269.968 64.4918 269.951 64.4784C269.733 64.2553 269.226 64.1802 268.791 64.2553C267.993 64.4784 267.921 64.3293 268.501 63.51C269.081 62.7658 268.573 61.7974 267.631 61.7974C266.325 61.7974 262.555 67.2333 261.104 71.33C259.654 75.2012 259.799 77.2871 261.395 78.1064C262.555 78.7015 264.222 78.0313 265.818 76.1696C267.703 74.0849 270.386 68.7229 270.386 67.1594C270.386 67.1183 270.389 67.0784 270.395 67.0397C270.392 66.9961 270.389 66.9526 270.385 66.9091ZM267.196 69.7653C266.543 71.1809 265.383 72.9674 264.658 73.7868C263.425 75.2012 262.845 75.5745 262.845 74.9782C262.845 73.7868 266.035 66.8612 267.341 65.2226C267.631 64.9256 267.776 64.8505 267.631 64.9995C267.558 65.2226 267.703 65.8189 267.993 66.2661C268.501 67.1594 268.501 67.1594 267.196 69.7653Z" fill="#D79A29"/>
<path d="M155.894 69.5648C155.971 69.326 155.96 69.0773 155.808 68.8235C155.853 68.8987 155.763 68.7703 155.733 68.737C155.72 68.7241 155.706 68.7122 155.692 68.6999C155.69 68.6986 155.689 68.6977 155.687 68.6963C155.65 68.6763 155.614 68.6555 155.577 68.6354C155.567 68.6362 155.456 68.5948 155.427 68.588C155.411 68.5842 155.394 68.5817 155.378 68.5785C155.368 68.5779 155.352 68.5767 155.33 68.5748C155.324 68.575 155.319 68.575 155.313 68.5752C154.276 69.5173 153.186 70.4135 152.026 71.2467C151.35 71.7323 150.554 72.0817 149.813 72.4938C149.748 72.4241 149.683 72.3543 149.617 72.2846C149.634 72.153 149.635 72.0179 149.671 71.8904C149.789 71.4638 149.857 71.0143 150.056 70.6192C151.685 67.3875 153.337 64.165 154.989 60.9429C155.181 60.5687 155.45 60.2254 155.63 59.847C155.893 59.2914 155.894 58.6574 155.262 58.4C154.825 58.2223 154.175 58.3279 153.674 58.4663C153.335 58.5598 153.047 58.9014 152.808 59.1817C150.234 62.2004 148.085 65.4402 147.039 69.1534C146.711 70.3156 146.691 71.6203 146.89 72.8096C147.127 74.2318 148.657 74.8523 150.126 74.2746C150.899 73.9707 151.698 73.587 152.29 73.0609C152.944 72.479 153.591 71.8881 154.233 71.2921C154.669 70.8877 155.667 70.2698 155.894 69.5648Z" fill="#D79A29"/>
</svg>
